<svg id="menu-black-18dp" xmlns="http://www.w3.org/2000/svg" width="33.2" height="33.2" viewBox="0 0 33.2 33.2">
  <path id="Path_180" data-name="Path 180" d="M0,0H33.2V33.2H0Z" fill="none"/>
  <path id="Path_181" data-name="Path 181" d="M4.383,22.6H26.517a1.383,1.383,0,0,0,0-2.767H4.383a1.383,1.383,0,1,0,0,2.767Zm0-6.917H26.517a1.383,1.383,0,1,0,0-2.767H4.383a1.383,1.383,0,1,0,0,2.767ZM3,7.383A1.387,1.387,0,0,0,4.383,8.767H26.517a1.383,1.383,0,0,0,0-2.767H4.383A1.387,1.387,0,0,0,3,7.383Z" transform="translate(1.15 2.3)" fill="#f20505"/>
</svg>
